# Blender 3.3.1
# www.blender.org
mtllib Low Poly Cardboard Box.mtl
o Cube.001
v 1.001769 1.706382 0.052094
v -1.003033 1.710282 0.045467
v 0.997220 1.615615 0.059916
v -1.002779 1.615615 0.059916
v 0.995200 1.699117 0.052483
v -1.001124 1.701762 0.047817
v 0.999083 1.610796 0.057302
v -0.997592 1.600386 0.055046
v -1.003218 1.520235 -0.114937
v 1.004593 1.518476 -0.114937
v -1.002606 1.599769 -0.114909
v 0.997394 1.599769 -0.114909
v 0.997135 1.596132 -0.114937
v -0.995644 1.585721 -0.117193
v -0.998987 1.593632 -0.114937
v -1.003218 1.520235 0.225046
v 1.004593 1.518476 0.225046
v 1.002617 1.672299 0.234838
v -1.002185 1.676198 0.225046
v -1.000812 1.670330 0.224546
v 0.993259 1.667685 0.232377
v -0.982351 0.030342 -0.114937
v -1.003218 0.051209 -0.114937
v -0.997106 0.036454 -0.114937
v 1.004593 0.051209 -0.114937
v 0.983725 0.030342 -0.114937
v 0.998481 0.036454 -0.114937
v -1.003218 0.051209 0.225046
v -0.982351 0.030342 0.225046
v -0.997106 0.036454 0.225046
v 0.983725 0.030342 0.225046
v 1.004593 0.051209 0.225046
v 0.998481 0.036454 0.225046
vn 0.9808 -0.1951 -0.0000
vn 1.0000 -0.0000 -0.0000
vn 0.0012 0.9828 0.1849
vn -0.0000 0.9959 -0.0903
vn -0.1951 -0.9808 -0.0000
vn 0.1951 -0.9808 -0.0000
vn -0.9731 -0.2269 -0.0386
vn 0.6036 -0.7849 -0.1400
vn 0.9810 0.1928 -0.0220
vn -0.9209 -0.3887 0.0272
vn -0.0002 0.1296 -0.9916
vn -0.0047 -0.2685 0.9633
vn 0.0025 -0.1717 -0.9852
vn 0.0004 -0.3496 0.9369
vn -0.7071 -0.7071 -0.0000
vn -0.9808 -0.1951 -0.0000
vn 0.7071 -0.7071 -0.0000
vn -1.0000 -0.0000 -0.0000
vt 0.625000 0.000000
vt 0.625000 0.250000
vt 0.625000 0.750000
vt 0.625000 0.500000
vt 0.625000 0.000000
vt 0.625000 0.250000
vt 0.625000 0.750000
vt 0.625000 0.500000
vt 0.620455 0.396139
vt 0.625000 0.853861
vt 0.625000 0.500000
vt 0.584662 0.199999
vt 0.625000 0.750000
vt 0.584662 0.042821
vt 0.625000 0.750000
vt 0.583190 0.042974
vt 0.625000 0.500000
vt 0.583190 0.199846
vt 0.625000 0.500000
vt 0.584496 0.199848
vt 0.620455 0.353641
vt 0.625000 0.896359
vt 0.625000 0.000000
vt 0.590653 0.707179
vt 0.625000 0.250000
vt 0.590653 0.550001
vt 0.625000 0.250000
vt 0.589155 0.550153
vt 0.625000 0.000000
vt 0.589155 0.707027
vt 0.271139 0.502598
vt 0.378438 0.396139
vt 0.271139 0.500000
vt 0.375000 0.396139
vt 0.378506 0.853861
vt 0.271139 0.747402
vt 0.375000 0.853861
vt 0.271139 0.750000
vt 0.378438 0.353641
vt 0.228641 0.502598
vt 0.228641 0.500000
vt 0.375000 0.353641
vt 0.228641 0.747402
vt 0.378506 0.896359
vt 0.375000 0.896359
vt 0.228641 0.750000
s 1
usemtl Material.002
f 32/44/1 25/35/1 10/10/2 17/22/2
f 18/23/3 1/1/3 2/2/3 19/25/3
f 4/4/4 3/3/4 12/13/4 11/11/4
f 29/40/5 22/31/5 26/36/6 31/43/6
f 2/2/7 6/6/7 20/27/7 19/25/7
f 5/5/8 1/1/8 18/23/8 21/29/8
f 12/13/9 3/3/9 7/7/9 13/15/9
f 15/19/10 14/17/10 8/8/10 4/4/10 11/11/10
f 15/20/11 11/12/11 12/14/11 13/16/11 14/18/11
f 18/24/12 19/26/12 20/28/12 21/30/12
f 2/2/13 1/1/13 5/5/13 6/6/13
f 4/4/14 8/8/14 7/7/14 3/3/14
f 22/31/5 29/40/5 30/41/15 24/33/15
f 24/34/15 30/42/15 28/39/16 23/32/16
f 25/35/1 32/44/1 33/45/17 27/37/17
f 27/38/17 33/46/17 31/43/6 26/36/6
f 16/21/18 9/9/18 23/32/16 28/39/16
o Cube
v 0.999083 1.704023 0.051958
v -1.000917 1.704023 0.051958
v 0.999083 1.611597 0.055450
v -1.000917 1.611597 0.055450
v 0.999083 1.491061 1.054176
v -1.000917 1.491061 1.054176
v -1.000917 1.491061 -0.945824
v 0.999083 1.491061 -0.945824
v 0.987536 0.022247 1.042629
v 0.988179 1.507754 1.041286
v -0.989370 0.022247 1.042629
v -0.990013 1.507754 1.041287
v 0.987536 0.022247 -0.934277
v 0.987876 1.507318 -0.933580
v -0.989370 0.022247 -0.934277
v -0.989711 1.507318 -0.933580
v 0.999083 1.684357 0.048317
v -1.000917 1.684357 0.048317
v 0.999083 1.591683 0.057302
v -1.000917 1.591683 0.057302
v 0.984941 1.491061 1.040034
v -0.986775 1.491061 1.040034
v -0.986775 1.491061 -0.931682
v 0.984941 1.491061 -0.931682
v 0.585251 1.454059 1.040035
v 0.587177 1.470751 1.041287
v -0.589011 1.470751 1.041287
v -0.588832 1.470315 -0.933579
v 0.586997 1.470315 -0.933579
v -0.587086 1.454059 1.040035
v -0.587086 1.454059 -0.931681
v 0.585251 1.454059 -0.931681
v 0.999083 1.522385 1.033058
v 0.999083 1.496999 1.054176
v 0.999083 1.518476 1.032700
v 0.988206 1.507780 1.041319
v -1.000917 1.496999 1.054176
v -1.000917 1.522385 1.033059
v -0.990040 1.507780 1.041319
v -1.000917 1.518476 1.032700
v 0.999083 1.496999 -0.945824
v 0.999083 1.520464 -0.924440
v 0.987904 1.507345 -0.933611
v 0.999083 1.518476 -0.924348
v -1.000917 1.520464 -0.924440
v -1.000917 1.496999 -0.945824
v -1.000917 1.518476 -0.924348
v -0.989739 1.507345 -0.933611
v 0.979119 0.010700 1.034212
v 0.999083 0.030664 1.054176
v -0.980953 0.010700 1.034212
v -1.000917 0.030664 1.054176
v 0.979119 0.010700 -0.925860
v 0.999083 0.030664 -0.945824
v -0.980953 0.010700 -0.925860
v -1.000917 0.030664 -0.945824
v 0.995490 1.510830 -0.937981
v 0.989901 1.515008 -0.931828
v -1.004510 1.510830 -0.937980
v -0.998921 1.515008 -0.931828
v 0.997462 1.512691 1.049969
v 0.992024 1.516127 1.043361
v -1.002538 1.512691 1.049969
v -0.997099 1.516127 1.043361
v 0.999083 1.491061 0.265530
v 0.999083 1.491061 -0.157178
v -1.000917 1.491061 -0.157178
v -1.000917 1.491061 0.265530
v -0.980953 0.031374 -0.157178
v -0.980953 0.031374 0.265530
v -1.000917 0.051338 0.265530
v -1.000917 0.051338 -0.157178
v 0.979119 0.031374 0.265530
v 0.979119 0.031374 -0.157178
v 0.999083 0.051338 -0.157178
v 0.999083 0.051338 0.265530
v -0.989370 0.042921 0.266217
v -0.989370 0.042921 -0.157865
v -0.989894 1.507582 0.265896
v -0.989830 1.507489 -0.158189
v 0.987536 0.042921 -0.157865
v 0.987536 0.042921 0.266217
v 0.987995 1.507489 -0.158189
v 0.988060 1.507582 0.265895
v 0.984941 1.491061 0.266218
v 0.984941 1.491061 -0.157866
v -0.986775 1.491061 -0.157866
v -0.986775 1.491061 0.266218
v -0.588941 1.470580 0.265897
v -0.588902 1.470486 -0.158189
v 0.587067 1.470486 -0.158189
v 0.587106 1.470580 0.265897
v 0.585251 1.454059 -0.157867
v 0.585251 1.454059 0.266220
v -0.587086 1.454059 0.266220
v -0.587086 1.454059 -0.157866
v -0.994555 0.020644 1.047814
v 0.992720 0.020644 1.047813
v -0.994555 0.020644 -0.939462
v 0.992720 0.020644 -0.939462
v 0.992720 0.041394 -0.157951
v 0.992720 0.041394 0.266302
v -0.994555 0.041394 0.266303
v -0.994555 0.041394 -0.157951
vn -0.0919 0.9958 -0.0002
vn -0.9498 -0.3088 -0.0508
vn -0.9452 -0.3256 0.0236
vn -0.0000 -0.0000 1.0000
vn -0.0000 0.1263 0.9920
vn -0.0000 0.1346 0.9909
vn -1.0000 -0.0000 -0.0000
vn -0.9994 0.0328 -0.0060
vn -0.9992 0.0386 -0.0071
vn -0.9984 -0.0237 0.0508
vn -0.9989 -0.0201 0.0430
vn 0.9498 -0.3088 -0.0508
vn 0.9452 -0.3256 0.0236
vn -0.0000 -0.9996 -0.0269
vn -0.0000 -0.9999 -0.0134
vn -0.0000 -0.0000 -1.0000
vn -0.7802 -0.6253 0.0166
vn -0.7329 -0.6803 0.0093
vn -0.8436 -0.5369 0.0067
vn -0.8450 -0.5346 0.0141
vn -0.0000 0.0387 -0.9992
vn -0.0000 0.0748 -0.9972
vn 0.0922 -0.9957 -0.0000
vn -0.0000 0.0603 0.9982
vn -0.0000 0.1160 0.9933
vn -0.0922 -0.9957 -0.0000
vn 0.0919 0.9958 -0.0002
vn -0.0000 -0.9845 -0.1751
vn -0.0000 -0.9964 0.0848
vn -0.0000 -0.0018 1.0000
vn 1.0000 -0.0018 -0.0000
vn -0.0000 -0.0018 -1.0000
vn -0.0000 0.9372 0.3487
vn -0.0000 0.9403 0.3402
vn -0.0000 0.9833 0.1820
vn -0.0000 0.1820 -0.9833
vn -0.0000 0.9957 -0.0926
vn -0.0000 0.0926 0.9957
vn -0.0000 0.2719 -0.9623
vn -0.0000 0.2356 -0.9718
vn 0.9936 0.1131 -0.0000
vn 0.9937 0.1119 -0.0000
vn -0.9941 0.1083 -0.0000
vn -0.9940 0.1095 -0.0000
vn -0.0109 -0.1175 -0.9930
vn -1.0000 -0.0018 -0.0000
vn 0.0070 -0.0759 0.9971
vn 0.0109 -0.1175 -0.9930
vn -0.0070 -0.0759 0.9971
vn 0.8629 0.4493 0.2315
vn -0.5193 -0.8022 -0.2948
vn 0.4566 -0.8855 0.0865
vn -0.9304 -0.1550 0.3322
vn -0.0000 0.2590 0.9659
vn -0.0000 0.6705 -0.7419
vn -0.0000 0.6695 -0.7428
vn 1.0000 -0.0000 -0.0000
vn -0.0000 -0.6271 0.7790
vn -0.0000 -0.5360 0.8442
vn -0.0000 -0.9999 0.0134
vn -0.0000 -0.9996 0.0269
vn -0.0000 -0.6271 -0.7790
vn -0.0000 -0.5360 -0.8442
vn 0.7802 -0.6253 -0.0166
vn 0.7329 -0.6803 -0.0093
vn 0.8436 -0.5369 -0.0067
vn 0.8450 -0.5346 -0.0141
vn -0.0000 0.8148 -0.5798
vn -0.3360 -0.7987 0.4991
vn 0.5304 0.6720 -0.5167
vn -0.0000 0.8676 0.4973
vn -0.9835 0.1778 -0.0327
vn 0.5521 -0.8247 -0.1226
vn 0.7329 -0.6803 0.0093
vn 0.7802 -0.6253 0.0166
vn 0.8450 -0.5346 0.0141
vn 0.8436 -0.5369 0.0067
vn -0.7329 -0.6803 -0.0093
vn -0.7802 -0.6253 -0.0166
vn -0.8450 -0.5346 -0.0141
vn -0.8436 -0.5369 -0.0067
vn 0.7034 0.7108 -0.0005
vn -0.7042 0.7100 0.0002
vn -0.9937 0.1119 -0.0000
vn -0.9936 0.1131 -0.0000
vn -0.0000 0.9999 -0.0133
vn -0.0000 0.9996 -0.0266
vn 0.9940 0.1095 -0.0000
vn 0.9941 0.1083 -0.0000
vn -0.0000 0.9999 0.0133
vn -0.0000 0.9996 0.0266
vn -0.5959 -0.8030 -0.0104
vn -0.5959 -0.8030 0.0104
vn 0.5959 -0.8030 0.0104
vn 0.5959 -0.8030 -0.0104
vn -0.5988 -0.8006 -0.0214
vn 0.5988 -0.8006 0.0214
vn 0.5988 -0.8006 -0.0214
vn -0.0000 -0.8073 -0.5902
vn -0.0000 -0.8073 0.5902
vn -0.5988 -0.8006 0.0214
vt 0.625000 0.000000
vt 0.625000 0.250000
vt 0.625000 0.750000
vt 0.625000 0.500000
vt 0.620455 0.000000
vt 0.620455 1.000000
vt 0.620455 0.250000
vt 0.620455 0.500000
vt 0.620455 0.750000
vt 0.375000 0.000000
vt 0.375000 1.000000
vt 0.125000 0.750000
vt 0.625000 0.000000
vt 0.625000 1.000000
vt 0.375000 0.250000
vt 0.125000 0.500000
vt 0.625000 0.250000
vt 0.375000 0.750000
vt 0.625000 0.750000
vt 0.375000 0.500000
vt 0.625000 0.500000
vt 0.625000 0.000000
vt 0.625000 0.250000
vt 0.625000 0.750000
vt 0.625000 0.500000
vt 0.620455 0.000000
vt 0.620455 1.000000
vt 0.620455 0.250000
vt 0.620455 0.500000
vt 0.620455 0.750000
vt 0.620455 0.000000
vt 0.620455 1.000000
vt 0.625000 0.000000
vt 0.625000 1.000000
vt 0.625000 0.250000
vt 0.625000 0.500000
vt 0.625000 0.750000
vt 0.620455 0.250000
vt 0.620455 0.500000
vt 0.620455 0.750000
vt 0.625000 0.000000
vt 0.621439 0.000000
vt 0.621439 1.000000
vt 0.625000 0.000000
vt 0.625000 0.997315
vt 0.625000 0.000000
vt 0.623227 0.001360
vt 0.625000 1.000000
vt 0.621439 0.250000
vt 0.625648 0.250000
vt 0.625000 0.250000
vt 0.625000 0.250000
vt 0.625000 0.252685
vt 0.621439 0.750000
vt 0.625330 0.750000
vt 0.625000 0.750000
vt 0.625000 0.750000
vt 0.625000 0.752685
vt 0.625000 0.500000
vt 0.625000 0.500000
vt 0.621439 0.500000
vt 0.625000 0.497315
vt 0.625000 0.500000
vt 0.127496 0.747504
vt 0.125000 0.750000
vt 0.378310 0.000000
vt 0.378310 1.000000
vt 0.127496 0.502495
vt 0.378310 0.250000
vt 0.125000 0.500000
vt 0.372505 0.747505
vt 0.378310 0.750000
vt 0.375000 0.750000
vt 0.372504 0.502495
vt 0.375000 0.500000
vt 0.378310 0.500000
vt 0.623302 0.750000
vt 0.625000 0.751342
vt 0.624110 0.500000
vt 0.625000 0.498658
vt 0.623220 0.000000
vt 0.624113 0.000680
vt 0.625000 0.998658
vt 0.623382 0.250000
vt 0.625000 0.251342
vt 0.620455 0.901419
vt 0.620455 0.848581
vt 0.620455 0.401419
vt 0.620455 0.348581
vt 0.276419 0.502495
vt 0.223581 0.502495
vt 0.223581 0.500000
vt 0.378310 0.348581
vt 0.276419 0.500000
vt 0.378310 0.401419
vt 0.223581 0.747504
vt 0.276419 0.747505
vt 0.276419 0.750000
vt 0.378310 0.848581
vt 0.223581 0.750000
vt 0.378310 0.901419
vt 0.375000 0.348185
vt 0.223185 0.500000
vt 0.375000 0.401815
vt 0.276815 0.500000
vt 0.625000 0.348157
vt 0.625000 0.401843
vt 0.375000 0.848185
vt 0.276815 0.750000
vt 0.375000 0.901815
vt 0.223185 0.750000
vt 0.625000 0.848157
vt 0.625000 0.901843
vt 0.620455 0.901885
vt 0.620455 0.848115
vt 0.620455 0.401885
vt 0.620455 0.348115
vt 0.625000 0.348157
vt 0.625000 0.401843
vt 0.625000 0.848157
vt 0.625000 0.901843
vt 0.620455 0.848114
vt 0.620455 0.901886
vt 0.620455 0.348114
vt 0.620455 0.401886
vt 0.126248 0.501248
vt 0.126248 0.748752
vt 0.374580 0.501248
vt 0.374580 0.748752
vt 0.276419 0.748752
vt 0.223581 0.748752
vt 0.223581 0.501248
vt 0.276419 0.501248
s 1
usemtl Material.001
f 116/158/19 47/65/19 62/83/19 124/166/19
f 72/98/20 71/97/20 35/48/20 51/69/20 45/63/20
f 37/50/21 78/105/21 81/109/21 49/67/21 53/71/21
f 38/51/22 67/88/23 70/95/24 39/53/22
f 39/53/25 70/95/26 73/99/27 80/108/28 79/107/29 40/54/25 100/134/25 101/135/25
f 34/47/30 66/87/30 69/92/30 43/59/30 50/68/30
f 76/103/31 75/102/31 36/49/31 52/70/31 47/65/31
f 84/114/32 103/137/33 106/142/33 82/110/32
f 89/122/34 40/54/34 41/55/34 87/118/34
f 132/174/35 137/179/36 105/140/37 89/121/38
f 54/72/39 55/74/39 45/63/40 43/59/40
f 57/76/41 119/161/41 126/168/41 65/86/41
f 56/75/42 57/76/42 47/65/43 49/67/43
f 55/74/44 121/163/44 128/170/44 63/84/44
f 49/67/45 113/153/45 123/165/45 61/82/45
f 45/63/46 51/69/46 50/68/46 43/59/46
f 47/65/47 52/70/47 53/71/47 49/67/47
f 43/60/19 117/159/19 125/167/19 59/80/19
f 48/66/48 46/64/48 57/76/42 56/75/42
f 44/61/49 110/148/49 121/163/49 55/74/49
f 42/56/50 44/61/50 55/74/39 54/72/39
f 85/115/25 39/53/25 101/135/25 104/139/25
f 71/97/51 66/87/52 34/47/53 35/48/53
f 35/48/54 34/47/54 50/68/54 51/69/54
f 75/102/55 78/105/55 37/50/55 36/49/55
f 112/152/45 45/63/45 60/81/45 122/164/45
f 36/49/56 37/50/56 53/71/56 52/70/56
f 40/54/34 79/107/57 74/100/58 41/55/34
f 63/84/59 128/170/60 122/164/60 60/81/59
f 65/86/61 126/168/62 124/166/62 62/83/61
f 118/160/41 54/73/41 58/78/41 127/169/41
f 56/75/63 49/67/63 61/82/63 64/85/63
f 46/64/64 114/154/64 119/161/64 57/76/64
f 54/72/65 43/59/65 59/79/65 58/77/65
f 47/65/66 57/76/66 65/86/66 62/83/66
f 45/63/67 55/74/67 63/84/67 60/81/67
f 94/127/68 67/88/68 68/90/68 95/128/68
f 96/130/69 71/96/69 72/98/69 97/131/69
f 90/123/70 75/101/70 76/103/70 91/124/70
f 92/125/71 79/106/29 80/108/28 93/126/71
f 94/127/72 96/130/72 70/95/24 67/88/23
f 92/125/73 90/123/74 74/100/58 79/107/57
f 87/118/75 41/55/75 99/133/75 108/145/75
f 130/172/76 131/173/76 83/111/77 85/116/77
f 102/136/78 88/120/79 86/117/79 107/143/78
f 133/175/80 132/174/80 89/122/81 87/118/81
f 131/173/82 135/177/83 109/146/84 83/111/85
f 83/112/22 38/51/22 39/53/22 85/115/22
f 78/105/86 75/102/86 90/123/74 92/125/73
f 78/105/87 92/125/87 93/126/87 81/109/87
f 74/100/88 90/123/88 91/124/88 77/104/88
f 66/87/52 71/97/51 96/130/89 94/127/89
f 70/95/26 96/130/90 97/131/90 73/99/27
f 66/87/91 94/127/91 95/128/91 69/93/91
f 134/176/92 133/175/93 87/119/94 108/144/95
f 136/178/96 130/172/97 85/116/98 104/138/99
f 105/141/25 100/134/25 40/54/25 89/122/25
f 109/147/75 98/132/75 38/52/75 83/113/75
f 134/176/92 108/144/95 109/146/84 135/177/83
f 136/178/96 104/138/99 105/140/37 137/179/36
f 102/136/78 107/143/78 106/142/33 103/137/33
f 100/134/25 105/141/25 104/139/25 101/135/25
f 98/132/75 109/147/75 108/145/75 99/133/75
f 41/55/75 74/100/75 77/104/75 68/91/75 67/89/75 38/52/75 98/132/75 99/133/75
f 81/109/100 93/126/100 80/108/100 73/99/100 97/131/100 72/98/100 45/63/100 112/152/100 113/153/100 49/67/100
f 69/94/101 95/129/101 68/91/101 77/104/101 91/124/101 76/103/101 47/65/101 116/158/101 117/159/101 43/60/101
f 127/169/102 58/78/103 59/80/103 125/167/102
f 111/151/104 114/155/104 46/64/105 48/66/105
f 115/156/64 42/57/64 54/73/64 118/160/64
f 111/150/49 48/66/49 56/75/49 120/162/49
f 129/171/106 64/85/107 61/82/107 123/165/106
f 120/162/44 56/75/44 64/85/44 129/171/44
f 112/152/45 122/164/45 123/165/45 113/153/45
f 116/158/19 124/166/19 125/167/19 117/159/19
f 127/169/102 125/167/102 124/166/62 126/168/62
f 129/171/106 123/165/106 122/164/60 128/170/60
f 111/150/49 120/162/49 121/163/49 110/148/49
f 115/156/64 118/160/64 119/161/64 114/154/64
f 114/155/104 111/151/104 110/149/108 115/157/108
f 120/162/44 129/171/44 128/170/44 121/163/44
f 118/160/41 127/169/41 126/168/41 119/161/41
f 44/62/109 42/58/109 115/157/108 110/149/108
f 103/137/110 136/178/96 137/179/36 102/136/111
f 107/143/112 134/176/92 135/177/83 106/142/113
f 103/137/110 84/114/114 130/172/97 136/178/96
f 107/143/112 86/117/115 133/175/93 134/176/92
f 82/110/116 106/142/113 135/177/83 131/173/82
f 86/117/117 88/120/117 132/174/80 133/175/80
f 84/114/118 82/110/118 131/173/76 130/172/76
f 88/120/119 102/136/111 137/179/36 132/174/35
